<mxfile host="app.diagrams.net" modified="2022-05-03T08:51:39.740Z" agent="5.0 (Windows)" etag="Bk2A_vQNoI2E2RPaZS41" version="16.6.6" type="github">
  <diagram id="C5RBs43oDa-KdzZeNtuy" name="Page-1">
    <mxGraphModel dx="1421" dy="2122" grid="1" gridSize="10" guides="1" tooltips="1" connect="1" arrows="1" fold="1" page="1" pageScale="1" pageWidth="827" pageHeight="1169" math="0" shadow="0">
      <root>
        <mxCell id="WIyWlLk6GJQsqaUBKTNV-0" />
        <mxCell id="WIyWlLk6GJQsqaUBKTNV-1" parent="WIyWlLk6GJQsqaUBKTNV-0" />
        <mxCell id="VoRoWikCG2MjpyRXgrAW-0" value="" style="rounded=0;html=1;jettySize=auto;orthogonalLoop=1;fontSize=11;endArrow=block;endFill=0;endSize=8;strokeWidth=1;shadow=0;labelBackgroundColor=none;edgeStyle=orthogonalEdgeStyle;entryX=0.5;entryY=0;entryDx=0;entryDy=0;" edge="1" parent="WIyWlLk6GJQsqaUBKTNV-1" source="VoRoWikCG2MjpyRXgrAW-1" target="VoRoWikCG2MjpyRXgrAW-4">
          <mxGeometry relative="1" as="geometry">
            <mxPoint x="220" y="170" as="targetPoint" />
          </mxGeometry>
        </mxCell>
        <mxCell id="VoRoWikCG2MjpyRXgrAW-1" value="Setup the values" style="rounded=1;whiteSpace=wrap;html=1;fontSize=12;glass=0;strokeWidth=1;shadow=0;" vertex="1" parent="WIyWlLk6GJQsqaUBKTNV-1">
          <mxGeometry x="40" y="40" width="150" height="70" as="geometry" />
        </mxCell>
        <mxCell id="VoRoWikCG2MjpyRXgrAW-2" style="edgeStyle=orthogonalEdgeStyle;rounded=0;orthogonalLoop=1;jettySize=auto;html=1;exitX=0.25;exitY=1;exitDx=0;exitDy=0;entryX=0.5;entryY=1;entryDx=0;entryDy=0;" edge="1" parent="WIyWlLk6GJQsqaUBKTNV-1" source="VoRoWikCG2MjpyRXgrAW-4" target="VoRoWikCG2MjpyRXgrAW-41">
          <mxGeometry relative="1" as="geometry">
            <mxPoint x="-210" y="410" as="targetPoint" />
          </mxGeometry>
        </mxCell>
        <mxCell id="VoRoWikCG2MjpyRXgrAW-3" style="edgeStyle=orthogonalEdgeStyle;rounded=0;orthogonalLoop=1;jettySize=auto;html=1;exitX=0.75;exitY=1;exitDx=0;exitDy=0;entryX=0.5;entryY=0;entryDx=0;entryDy=0;" edge="1" parent="WIyWlLk6GJQsqaUBKTNV-1" source="VoRoWikCG2MjpyRXgrAW-4" target="VoRoWikCG2MjpyRXgrAW-7">
          <mxGeometry relative="1" as="geometry">
            <mxPoint x="290" y="380" as="targetPoint" />
          </mxGeometry>
        </mxCell>
        <mxCell id="VoRoWikCG2MjpyRXgrAW-4" value="MAIN LOOP" style="shape=parallelogram;perimeter=parallelogramPerimeter;whiteSpace=wrap;html=1;fixedSize=1;" vertex="1" parent="WIyWlLk6GJQsqaUBKTNV-1">
          <mxGeometry x="120" y="220" width="200" height="120" as="geometry" />
        </mxCell>
        <mxCell id="VoRoWikCG2MjpyRXgrAW-5" value="Yes" style="edgeStyle=orthogonalEdgeStyle;rounded=0;orthogonalLoop=1;jettySize=auto;html=1;exitX=1;exitY=0.5;exitDx=0;exitDy=0;entryX=0;entryY=0.5;entryDx=0;entryDy=0;" edge="1" parent="WIyWlLk6GJQsqaUBKTNV-1" source="VoRoWikCG2MjpyRXgrAW-7" target="VoRoWikCG2MjpyRXgrAW-10">
          <mxGeometry relative="1" as="geometry">
            <mxPoint x="400" y="485" as="targetPoint" />
          </mxGeometry>
        </mxCell>
        <mxCell id="VoRoWikCG2MjpyRXgrAW-6" value="No" style="edgeStyle=orthogonalEdgeStyle;rounded=0;orthogonalLoop=1;jettySize=auto;html=1;exitX=0;exitY=0;exitDx=0;exitDy=0;" edge="1" parent="WIyWlLk6GJQsqaUBKTNV-1" source="VoRoWikCG2MjpyRXgrAW-7" target="VoRoWikCG2MjpyRXgrAW-4">
          <mxGeometry relative="1" as="geometry">
            <Array as="points">
              <mxPoint x="240" y="430" />
              <mxPoint x="220" y="430" />
            </Array>
          </mxGeometry>
        </mxCell>
        <mxCell id="VoRoWikCG2MjpyRXgrAW-7" value="&lt;div&gt;Interrupt check the RPM.&lt;/div&gt;&lt;div&gt;Is time to perform speed measurement at given time spread?&lt;br&gt;&lt;/div&gt;" style="rhombus;whiteSpace=wrap;html=1;" vertex="1" parent="WIyWlLk6GJQsqaUBKTNV-1">
          <mxGeometry x="190" y="385" width="200" height="200" as="geometry" />
        </mxCell>
        <mxCell id="VoRoWikCG2MjpyRXgrAW-8" value="Yes" style="edgeStyle=orthogonalEdgeStyle;rounded=0;orthogonalLoop=1;jettySize=auto;html=1;exitX=1;exitY=0.5;exitDx=0;exitDy=0;entryX=0;entryY=0.5;entryDx=0;entryDy=0;" edge="1" parent="WIyWlLk6GJQsqaUBKTNV-1" source="VoRoWikCG2MjpyRXgrAW-10" target="VoRoWikCG2MjpyRXgrAW-14">
          <mxGeometry relative="1" as="geometry" />
        </mxCell>
        <mxCell id="VoRoWikCG2MjpyRXgrAW-9" value="No" style="edgeStyle=orthogonalEdgeStyle;rounded=0;orthogonalLoop=1;jettySize=auto;html=1;" edge="1" parent="WIyWlLk6GJQsqaUBKTNV-1" source="VoRoWikCG2MjpyRXgrAW-10" target="VoRoWikCG2MjpyRXgrAW-61">
          <mxGeometry relative="1" as="geometry" />
        </mxCell>
        <mxCell id="VoRoWikCG2MjpyRXgrAW-10" value="Has been the read succesful?" style="rhombus;whiteSpace=wrap;html=1;" vertex="1" parent="WIyWlLk6GJQsqaUBKTNV-1">
          <mxGeometry x="430" y="420" width="130" height="130" as="geometry" />
        </mxCell>
        <mxCell id="VoRoWikCG2MjpyRXgrAW-11" style="edgeStyle=orthogonalEdgeStyle;rounded=0;orthogonalLoop=1;jettySize=auto;html=1;exitX=1;exitY=0.5;exitDx=0;exitDy=0;entryX=0;entryY=0.5;entryDx=0;entryDy=0;" edge="1" parent="WIyWlLk6GJQsqaUBKTNV-1" target="VoRoWikCG2MjpyRXgrAW-16">
          <mxGeometry relative="1" as="geometry">
            <mxPoint x="810.0900000000001" y="484.99999999999955" as="sourcePoint" />
          </mxGeometry>
        </mxCell>
        <mxCell id="VoRoWikCG2MjpyRXgrAW-12" value="No" style="edgeStyle=orthogonalEdgeStyle;rounded=0;orthogonalLoop=1;jettySize=auto;html=1;" edge="1" parent="WIyWlLk6GJQsqaUBKTNV-1" source="VoRoWikCG2MjpyRXgrAW-14" target="VoRoWikCG2MjpyRXgrAW-63">
          <mxGeometry relative="1" as="geometry" />
        </mxCell>
        <mxCell id="VoRoWikCG2MjpyRXgrAW-13" value="Yes" style="edgeStyle=orthogonalEdgeStyle;rounded=0;orthogonalLoop=1;jettySize=auto;html=1;" edge="1" parent="WIyWlLk6GJQsqaUBKTNV-1" source="VoRoWikCG2MjpyRXgrAW-14" target="VoRoWikCG2MjpyRXgrAW-16">
          <mxGeometry relative="1" as="geometry" />
        </mxCell>
        <mxCell id="VoRoWikCG2MjpyRXgrAW-14" value="Is interval gotten zero?" style="rhombus;whiteSpace=wrap;html=1;" vertex="1" parent="WIyWlLk6GJQsqaUBKTNV-1">
          <mxGeometry x="630" y="420" width="130" height="130" as="geometry" />
        </mxCell>
        <mxCell id="VoRoWikCG2MjpyRXgrAW-15" style="edgeStyle=orthogonalEdgeStyle;rounded=0;orthogonalLoop=1;jettySize=auto;html=1;exitX=0.5;exitY=0;exitDx=0;exitDy=0;entryX=0.5;entryY=1;entryDx=0;entryDy=0;" edge="1" parent="WIyWlLk6GJQsqaUBKTNV-1" source="VoRoWikCG2MjpyRXgrAW-16" target="VoRoWikCG2MjpyRXgrAW-21">
          <mxGeometry relative="1" as="geometry">
            <mxPoint x="900.09" y="280" as="targetPoint" />
          </mxGeometry>
        </mxCell>
        <mxCell id="VoRoWikCG2MjpyRXgrAW-16" value="&lt;div&gt;Do the revolution ship calculation&lt;/div&gt;" style="whiteSpace=wrap;html=1;aspect=fixed;" vertex="1" parent="WIyWlLk6GJQsqaUBKTNV-1">
          <mxGeometry x="830.09" y="435" width="100" height="100" as="geometry" />
        </mxCell>
        <mxCell id="VoRoWikCG2MjpyRXgrAW-17" style="edgeStyle=orthogonalEdgeStyle;rounded=0;orthogonalLoop=1;jettySize=auto;html=1;exitX=0;exitY=0;exitDx=0;exitDy=0;entryX=1;entryY=0.5;entryDx=0;entryDy=0;" edge="1" parent="WIyWlLk6GJQsqaUBKTNV-1" source="VoRoWikCG2MjpyRXgrAW-21" target="VoRoWikCG2MjpyRXgrAW-23">
          <mxGeometry relative="1" as="geometry" />
        </mxCell>
        <mxCell id="VoRoWikCG2MjpyRXgrAW-18" value="&lt;div&gt;Yes&lt;/div&gt;" style="edgeLabel;html=1;align=center;verticalAlign=middle;resizable=0;points=[];" vertex="1" connectable="0" parent="VoRoWikCG2MjpyRXgrAW-17">
          <mxGeometry x="-0.287" y="2" relative="1" as="geometry">
            <mxPoint x="-25" y="-2" as="offset" />
          </mxGeometry>
        </mxCell>
        <mxCell id="VoRoWikCG2MjpyRXgrAW-19" style="edgeStyle=orthogonalEdgeStyle;rounded=0;orthogonalLoop=1;jettySize=auto;html=1;entryX=1;entryY=0.5;entryDx=0;entryDy=0;" edge="1" parent="WIyWlLk6GJQsqaUBKTNV-1" source="VoRoWikCG2MjpyRXgrAW-4" target="VoRoWikCG2MjpyRXgrAW-25">
          <mxGeometry relative="1" as="geometry">
            <mxPoint x="660" y="240" as="targetPoint" />
            <Array as="points" />
          </mxGeometry>
        </mxCell>
        <mxCell id="VoRoWikCG2MjpyRXgrAW-20" value="No" style="edgeLabel;html=1;align=center;verticalAlign=middle;resizable=0;points=[];" vertex="1" connectable="0" parent="VoRoWikCG2MjpyRXgrAW-19">
          <mxGeometry x="0.1625" y="1" relative="1" as="geometry">
            <mxPoint x="-1" y="-1" as="offset" />
          </mxGeometry>
        </mxCell>
        <mxCell id="VoRoWikCG2MjpyRXgrAW-21" value="Is RPM over 0?" style="rhombus;whiteSpace=wrap;html=1;" vertex="1" parent="WIyWlLk6GJQsqaUBKTNV-1">
          <mxGeometry x="815.09" y="140" width="130" height="130" as="geometry" />
        </mxCell>
        <mxCell id="VoRoWikCG2MjpyRXgrAW-65" style="edgeStyle=orthogonalEdgeStyle;rounded=0;orthogonalLoop=1;jettySize=auto;html=1;entryX=0;entryY=0.5;entryDx=0;entryDy=0;" edge="1" parent="WIyWlLk6GJQsqaUBKTNV-1" source="VoRoWikCG2MjpyRXgrAW-23" target="VoRoWikCG2MjpyRXgrAW-64">
          <mxGeometry relative="1" as="geometry" />
        </mxCell>
        <mxCell id="VoRoWikCG2MjpyRXgrAW-23" value="Output the RPM" style="shape=parallelogram;perimeter=parallelogramPerimeter;whiteSpace=wrap;html=1;fixedSize=1;" vertex="1" parent="WIyWlLk6GJQsqaUBKTNV-1">
          <mxGeometry x="430" y="157.5" width="200" height="30" as="geometry" />
        </mxCell>
        <mxCell id="VoRoWikCG2MjpyRXgrAW-66" style="edgeStyle=orthogonalEdgeStyle;rounded=0;orthogonalLoop=1;jettySize=auto;html=1;entryX=0;entryY=0.5;entryDx=0;entryDy=0;" edge="1" parent="WIyWlLk6GJQsqaUBKTNV-1" source="VoRoWikCG2MjpyRXgrAW-25" target="VoRoWikCG2MjpyRXgrAW-64">
          <mxGeometry relative="1" as="geometry">
            <Array as="points">
              <mxPoint x="410" y="265" />
              <mxPoint x="410" y="60" />
            </Array>
          </mxGeometry>
        </mxCell>
        <mxCell id="VoRoWikCG2MjpyRXgrAW-25" value="Output the failure to read RPM" style="shape=parallelogram;perimeter=parallelogramPerimeter;whiteSpace=wrap;html=1;fixedSize=1;" vertex="1" parent="WIyWlLk6GJQsqaUBKTNV-1">
          <mxGeometry x="420" y="250" width="194" height="30" as="geometry" />
        </mxCell>
        <mxCell id="VoRoWikCG2MjpyRXgrAW-29" value="" style="edgeStyle=orthogonalEdgeStyle;rounded=0;orthogonalLoop=1;jettySize=auto;html=1;" edge="1" parent="WIyWlLk6GJQsqaUBKTNV-1" target="VoRoWikCG2MjpyRXgrAW-32">
          <mxGeometry relative="1" as="geometry">
            <mxPoint x="-80" y="440" as="sourcePoint" />
          </mxGeometry>
        </mxCell>
        <mxCell id="VoRoWikCG2MjpyRXgrAW-31" value="" style="edgeStyle=orthogonalEdgeStyle;rounded=0;orthogonalLoop=1;jettySize=auto;html=1;" edge="1" parent="WIyWlLk6GJQsqaUBKTNV-1" target="VoRoWikCG2MjpyRXgrAW-34">
          <mxGeometry relative="1" as="geometry">
            <mxPoint x="-220" y="440" as="sourcePoint" />
          </mxGeometry>
        </mxCell>
        <mxCell id="VoRoWikCG2MjpyRXgrAW-35" style="edgeStyle=orthogonalEdgeStyle;rounded=0;orthogonalLoop=1;jettySize=auto;html=1;exitX=1;exitY=0.5;exitDx=0;exitDy=0;entryX=0;entryY=0.5;entryDx=0;entryDy=0;" edge="1" parent="WIyWlLk6GJQsqaUBKTNV-1" source="VoRoWikCG2MjpyRXgrAW-38" target="VoRoWikCG2MjpyRXgrAW-4">
          <mxGeometry relative="1" as="geometry">
            <Array as="points">
              <mxPoint x="-90" y="85" />
              <mxPoint x="-90" y="130" />
              <mxPoint x="90" y="130" />
              <mxPoint x="90" y="280" />
            </Array>
          </mxGeometry>
        </mxCell>
        <mxCell id="VoRoWikCG2MjpyRXgrAW-36" value="&lt;div&gt;No&lt;/div&gt;" style="edgeLabel;html=1;align=center;verticalAlign=middle;resizable=0;points=[];" vertex="1" connectable="0" parent="VoRoWikCG2MjpyRXgrAW-35">
          <mxGeometry x="-0.5723" relative="1" as="geometry">
            <mxPoint x="-24" y="-20" as="offset" />
          </mxGeometry>
        </mxCell>
        <mxCell id="VoRoWikCG2MjpyRXgrAW-37" value="&lt;div&gt;Yes&lt;/div&gt;" style="edgeStyle=orthogonalEdgeStyle;rounded=0;orthogonalLoop=1;jettySize=auto;html=1;exitX=0.5;exitY=1;exitDx=0;exitDy=0;entryX=0.5;entryY=0;entryDx=0;entryDy=0;" edge="1" parent="WIyWlLk6GJQsqaUBKTNV-1" source="VoRoWikCG2MjpyRXgrAW-38" target="VoRoWikCG2MjpyRXgrAW-48">
          <mxGeometry relative="1" as="geometry" />
        </mxCell>
        <mxCell id="VoRoWikCG2MjpyRXgrAW-38" value="Is direction button pressed? " style="rhombus;whiteSpace=wrap;html=1;" vertex="1" parent="WIyWlLk6GJQsqaUBKTNV-1">
          <mxGeometry x="-245" y="20" width="130" height="130" as="geometry" />
        </mxCell>
        <mxCell id="VoRoWikCG2MjpyRXgrAW-39" value="Yes" style="edgeStyle=orthogonalEdgeStyle;rounded=0;orthogonalLoop=1;jettySize=auto;html=1;exitX=0.5;exitY=0;exitDx=0;exitDy=0;entryX=0.5;entryY=1;entryDx=0;entryDy=0;" edge="1" parent="WIyWlLk6GJQsqaUBKTNV-1" source="VoRoWikCG2MjpyRXgrAW-41" target="VoRoWikCG2MjpyRXgrAW-44">
          <mxGeometry relative="1" as="geometry" />
        </mxCell>
        <mxCell id="VoRoWikCG2MjpyRXgrAW-40" value="No" style="edgeStyle=orthogonalEdgeStyle;rounded=0;orthogonalLoop=1;jettySize=auto;html=1;exitX=1;exitY=0.5;exitDx=0;exitDy=0;entryX=0;entryY=0.5;entryDx=0;entryDy=0;" edge="1" parent="WIyWlLk6GJQsqaUBKTNV-1" source="VoRoWikCG2MjpyRXgrAW-41" target="VoRoWikCG2MjpyRXgrAW-38">
          <mxGeometry relative="1" as="geometry" />
        </mxCell>
        <mxCell id="VoRoWikCG2MjpyRXgrAW-41" value="&lt;div&gt;Is power button pressed? &lt;/div&gt;" style="rhombus;whiteSpace=wrap;html=1;" vertex="1" parent="WIyWlLk6GJQsqaUBKTNV-1">
          <mxGeometry x="-460" y="255" width="130" height="125" as="geometry" />
        </mxCell>
        <mxCell id="VoRoWikCG2MjpyRXgrAW-42" value="No" style="edgeStyle=orthogonalEdgeStyle;rounded=0;orthogonalLoop=1;jettySize=auto;html=1;exitX=0.5;exitY=0;exitDx=0;exitDy=0;entryX=1;entryY=0.5;entryDx=0;entryDy=0;" edge="1" parent="WIyWlLk6GJQsqaUBKTNV-1" source="VoRoWikCG2MjpyRXgrAW-44" target="VoRoWikCG2MjpyRXgrAW-52">
          <mxGeometry x="0.4286" relative="1" as="geometry">
            <mxPoint x="-395" y="90" as="targetPoint" />
            <mxPoint as="offset" />
          </mxGeometry>
        </mxCell>
        <mxCell id="VoRoWikCG2MjpyRXgrAW-43" value="Yes" style="edgeStyle=orthogonalEdgeStyle;rounded=0;orthogonalLoop=1;jettySize=auto;html=1;exitX=0;exitY=0.5;exitDx=0;exitDy=0;entryX=1;entryY=0.5;entryDx=0;entryDy=0;" edge="1" parent="WIyWlLk6GJQsqaUBKTNV-1" source="VoRoWikCG2MjpyRXgrAW-44">
          <mxGeometry relative="1" as="geometry">
            <mxPoint x="-510" y="180" as="targetPoint" />
          </mxGeometry>
        </mxCell>
        <mxCell id="VoRoWikCG2MjpyRXgrAW-44" value="Is it turned on?" style="rhombus;whiteSpace=wrap;html=1;" vertex="1" parent="WIyWlLk6GJQsqaUBKTNV-1">
          <mxGeometry x="-435" y="140" width="80" height="80" as="geometry" />
        </mxCell>
        <mxCell id="VoRoWikCG2MjpyRXgrAW-45" value="" style="edgeStyle=orthogonalEdgeStyle;rounded=0;orthogonalLoop=1;jettySize=auto;html=1;entryX=0;entryY=0.5;entryDx=0;entryDy=0;exitX=1;exitY=0.5;exitDx=0;exitDy=0;" edge="1" parent="WIyWlLk6GJQsqaUBKTNV-1" source="VoRoWikCG2MjpyRXgrAW-46" target="VoRoWikCG2MjpyRXgrAW-4">
          <mxGeometry relative="1" as="geometry">
            <mxPoint x="-95" y="215" as="targetPoint" />
            <Array as="points">
              <mxPoint x="90" y="300" />
              <mxPoint x="90" y="280" />
            </Array>
          </mxGeometry>
        </mxCell>
        <mxCell id="VoRoWikCG2MjpyRXgrAW-46" value="Jump start the engine" style="whiteSpace=wrap;html=1;aspect=fixed;rotation=0;" vertex="1" parent="WIyWlLk6GJQsqaUBKTNV-1">
          <mxGeometry x="-220" y="260" width="80" height="80" as="geometry" />
        </mxCell>
        <mxCell id="VoRoWikCG2MjpyRXgrAW-47" value="" style="edgeStyle=orthogonalEdgeStyle;rounded=0;orthogonalLoop=1;jettySize=auto;html=1;" edge="1" parent="WIyWlLk6GJQsqaUBKTNV-1" source="VoRoWikCG2MjpyRXgrAW-48" target="VoRoWikCG2MjpyRXgrAW-46">
          <mxGeometry relative="1" as="geometry" />
        </mxCell>
        <mxCell id="VoRoWikCG2MjpyRXgrAW-48" value="Change the direction" style="shape=parallelogram;perimeter=parallelogramPerimeter;whiteSpace=wrap;html=1;fixedSize=1;" vertex="1" parent="WIyWlLk6GJQsqaUBKTNV-1">
          <mxGeometry x="-232.5" y="187.5" width="105" height="35" as="geometry" />
        </mxCell>
        <mxCell id="VoRoWikCG2MjpyRXgrAW-49" style="edgeStyle=orthogonalEdgeStyle;rounded=0;orthogonalLoop=1;jettySize=auto;html=1;exitX=0;exitY=0.5;exitDx=0;exitDy=0;entryX=1;entryY=0.5;entryDx=0;entryDy=0;" edge="1" parent="WIyWlLk6GJQsqaUBKTNV-1" target="VoRoWikCG2MjpyRXgrAW-50">
          <mxGeometry relative="1" as="geometry">
            <mxPoint x="-590" y="180" as="sourcePoint" />
          </mxGeometry>
        </mxCell>
        <mxCell id="VoRoWikCG2MjpyRXgrAW-50" value="Change state to off" style="shape=parallelogram;perimeter=parallelogramPerimeter;whiteSpace=wrap;html=1;fixedSize=1;" vertex="1" parent="WIyWlLk6GJQsqaUBKTNV-1">
          <mxGeometry x="-770" y="165" width="130" height="30" as="geometry" />
        </mxCell>
        <mxCell id="VoRoWikCG2MjpyRXgrAW-51" style="edgeStyle=orthogonalEdgeStyle;rounded=0;orthogonalLoop=1;jettySize=auto;html=1;exitX=0;exitY=0.5;exitDx=0;exitDy=0;entryX=1;entryY=0.5;entryDx=0;entryDy=0;" edge="1" parent="WIyWlLk6GJQsqaUBKTNV-1" source="VoRoWikCG2MjpyRXgrAW-52" target="VoRoWikCG2MjpyRXgrAW-53">
          <mxGeometry relative="1" as="geometry" />
        </mxCell>
        <mxCell id="VoRoWikCG2MjpyRXgrAW-52" value="Power on" style="whiteSpace=wrap;html=1;aspect=fixed;" vertex="1" parent="WIyWlLk6GJQsqaUBKTNV-1">
          <mxGeometry x="-580" y="30" width="80" height="80" as="geometry" />
        </mxCell>
        <mxCell id="VoRoWikCG2MjpyRXgrAW-53" value="Change state to off" style="shape=parallelogram;perimeter=parallelogramPerimeter;whiteSpace=wrap;html=1;fixedSize=1;" vertex="1" parent="WIyWlLk6GJQsqaUBKTNV-1">
          <mxGeometry x="-760" y="55" width="130" height="30" as="geometry" />
        </mxCell>
        <mxCell id="VoRoWikCG2MjpyRXgrAW-54" value="" style="edgeStyle=orthogonalEdgeStyle;rounded=0;orthogonalLoop=1;jettySize=auto;html=1;" edge="1" parent="WIyWlLk6GJQsqaUBKTNV-1" source="VoRoWikCG2MjpyRXgrAW-55" target="VoRoWikCG2MjpyRXgrAW-57">
          <mxGeometry relative="1" as="geometry" />
        </mxCell>
        <mxCell id="VoRoWikCG2MjpyRXgrAW-55" value="Power off" style="whiteSpace=wrap;html=1;aspect=fixed;" vertex="1" parent="WIyWlLk6GJQsqaUBKTNV-1">
          <mxGeometry x="-580" y="140" width="80" height="80" as="geometry" />
        </mxCell>
        <mxCell id="VoRoWikCG2MjpyRXgrAW-56" style="edgeStyle=orthogonalEdgeStyle;rounded=0;orthogonalLoop=1;jettySize=auto;html=1;entryX=0.5;entryY=0;entryDx=0;entryDy=0;" edge="1" parent="WIyWlLk6GJQsqaUBKTNV-1" source="VoRoWikCG2MjpyRXgrAW-57" target="VoRoWikCG2MjpyRXgrAW-38">
          <mxGeometry relative="1" as="geometry">
            <mxPoint x="-340" y="70" as="targetPoint" />
            <Array as="points">
              <mxPoint x="-780" y="180" />
              <mxPoint x="-780" />
              <mxPoint x="-180" />
            </Array>
          </mxGeometry>
        </mxCell>
        <mxCell id="VoRoWikCG2MjpyRXgrAW-57" value="Change state to off" style="shape=parallelogram;perimeter=parallelogramPerimeter;whiteSpace=wrap;html=1;fixedSize=1;" vertex="1" parent="WIyWlLk6GJQsqaUBKTNV-1">
          <mxGeometry x="-770" y="165" width="130" height="30" as="geometry" />
        </mxCell>
        <mxCell id="VoRoWikCG2MjpyRXgrAW-58" style="edgeStyle=orthogonalEdgeStyle;rounded=0;orthogonalLoop=1;jettySize=auto;html=1;exitX=0;exitY=0.5;exitDx=0;exitDy=0;entryX=0.5;entryY=0;entryDx=0;entryDy=0;" edge="1" parent="WIyWlLk6GJQsqaUBKTNV-1" source="VoRoWikCG2MjpyRXgrAW-59" target="VoRoWikCG2MjpyRXgrAW-38">
          <mxGeometry relative="1" as="geometry">
            <mxPoint x="-320" y="60" as="targetPoint" />
            <Array as="points">
              <mxPoint x="-780" y="70" />
              <mxPoint x="-780" />
              <mxPoint x="-180" />
            </Array>
          </mxGeometry>
        </mxCell>
        <mxCell id="VoRoWikCG2MjpyRXgrAW-59" value="Change state to on" style="shape=parallelogram;perimeter=parallelogramPerimeter;whiteSpace=wrap;html=1;fixedSize=1;" vertex="1" parent="WIyWlLk6GJQsqaUBKTNV-1">
          <mxGeometry x="-760" y="55" width="130" height="30" as="geometry" />
        </mxCell>
        <mxCell id="VoRoWikCG2MjpyRXgrAW-60" style="edgeStyle=orthogonalEdgeStyle;rounded=0;orthogonalLoop=1;jettySize=auto;html=1;entryX=0.5;entryY=1;entryDx=0;entryDy=0;" edge="1" parent="WIyWlLk6GJQsqaUBKTNV-1" source="VoRoWikCG2MjpyRXgrAW-61" target="VoRoWikCG2MjpyRXgrAW-21">
          <mxGeometry relative="1" as="geometry">
            <Array as="points">
              <mxPoint x="495" y="320" />
              <mxPoint x="880" y="320" />
            </Array>
          </mxGeometry>
        </mxCell>
        <mxCell id="VoRoWikCG2MjpyRXgrAW-61" value="Output -1" style="shape=parallelogram;perimeter=parallelogramPerimeter;whiteSpace=wrap;html=1;fixedSize=1;" vertex="1" parent="WIyWlLk6GJQsqaUBKTNV-1">
          <mxGeometry x="446" y="350" width="98" height="30" as="geometry" />
        </mxCell>
        <mxCell id="VoRoWikCG2MjpyRXgrAW-62" style="edgeStyle=orthogonalEdgeStyle;rounded=0;orthogonalLoop=1;jettySize=auto;html=1;exitX=1;exitY=0.5;exitDx=0;exitDy=0;" edge="1" parent="WIyWlLk6GJQsqaUBKTNV-1" source="VoRoWikCG2MjpyRXgrAW-63" target="VoRoWikCG2MjpyRXgrAW-21">
          <mxGeometry relative="1" as="geometry">
            <mxPoint x="780.09" y="365.00000000000045" as="sourcePoint" />
          </mxGeometry>
        </mxCell>
        <mxCell id="VoRoWikCG2MjpyRXgrAW-63" value="Output 1" style="shape=parallelogram;perimeter=parallelogramPerimeter;whiteSpace=wrap;html=1;fixedSize=1;" vertex="1" parent="WIyWlLk6GJQsqaUBKTNV-1">
          <mxGeometry x="648" y="350" width="94" height="30" as="geometry" />
        </mxCell>
        <mxCell id="VoRoWikCG2MjpyRXgrAW-67" value="No" style="edgeStyle=orthogonalEdgeStyle;rounded=0;orthogonalLoop=1;jettySize=auto;html=1;entryX=1;entryY=0;entryDx=0;entryDy=0;" edge="1" parent="WIyWlLk6GJQsqaUBKTNV-1" source="VoRoWikCG2MjpyRXgrAW-64" target="VoRoWikCG2MjpyRXgrAW-4">
          <mxGeometry relative="1" as="geometry" />
        </mxCell>
        <mxCell id="VoRoWikCG2MjpyRXgrAW-79" value="" style="edgeStyle=orthogonalEdgeStyle;rounded=0;orthogonalLoop=1;jettySize=auto;html=1;" edge="1" parent="WIyWlLk6GJQsqaUBKTNV-1" source="VoRoWikCG2MjpyRXgrAW-64" target="VoRoWikCG2MjpyRXgrAW-75">
          <mxGeometry relative="1" as="geometry" />
        </mxCell>
        <mxCell id="VoRoWikCG2MjpyRXgrAW-64" value="Is motor powered on?" style="rhombus;whiteSpace=wrap;html=1;" vertex="1" parent="WIyWlLk6GJQsqaUBKTNV-1">
          <mxGeometry x="430" y="10" width="94" height="100" as="geometry" />
        </mxCell>
        <mxCell id="VoRoWikCG2MjpyRXgrAW-74" value="" style="edgeStyle=orthogonalEdgeStyle;rounded=0;orthogonalLoop=1;jettySize=auto;html=1;" edge="1" parent="WIyWlLk6GJQsqaUBKTNV-1" source="VoRoWikCG2MjpyRXgrAW-75" target="VoRoWikCG2MjpyRXgrAW-77">
          <mxGeometry relative="1" as="geometry" />
        </mxCell>
        <mxCell id="VoRoWikCG2MjpyRXgrAW-75" value="Read the potentiometer value" style="whiteSpace=wrap;html=1;aspect=fixed;" vertex="1" parent="WIyWlLk6GJQsqaUBKTNV-1">
          <mxGeometry x="590" y="20" width="80" height="80" as="geometry" />
        </mxCell>
        <mxCell id="VoRoWikCG2MjpyRXgrAW-76" value="" style="edgeStyle=orthogonalEdgeStyle;rounded=0;orthogonalLoop=1;jettySize=auto;html=1;" edge="1" parent="WIyWlLk6GJQsqaUBKTNV-1" source="VoRoWikCG2MjpyRXgrAW-77" target="VoRoWikCG2MjpyRXgrAW-78">
          <mxGeometry relative="1" as="geometry" />
        </mxCell>
        <mxCell id="VoRoWikCG2MjpyRXgrAW-77" value="Map the value up to 5000RPM" style="whiteSpace=wrap;html=1;aspect=fixed;" vertex="1" parent="WIyWlLk6GJQsqaUBKTNV-1">
          <mxGeometry x="716" y="20" width="80" height="80" as="geometry" />
        </mxCell>
        <mxCell id="VoRoWikCG2MjpyRXgrAW-81" style="edgeStyle=orthogonalEdgeStyle;rounded=0;orthogonalLoop=1;jettySize=auto;html=1;entryX=0.5;entryY=0;entryDx=0;entryDy=0;" edge="1" parent="WIyWlLk6GJQsqaUBKTNV-1" source="VoRoWikCG2MjpyRXgrAW-78" target="VoRoWikCG2MjpyRXgrAW-80">
          <mxGeometry relative="1" as="geometry">
            <mxPoint x="810" y="-80" as="targetPoint" />
            <Array as="points">
              <mxPoint x="896" />
              <mxPoint x="260" />
            </Array>
          </mxGeometry>
        </mxCell>
        <mxCell id="VoRoWikCG2MjpyRXgrAW-78" value="Calculate the PWM&amp;nbsp; from the RPM value, using PID" style="whiteSpace=wrap;html=1;aspect=fixed;" vertex="1" parent="WIyWlLk6GJQsqaUBKTNV-1">
          <mxGeometry x="856" y="20" width="80" height="80" as="geometry" />
        </mxCell>
        <mxCell id="VoRoWikCG2MjpyRXgrAW-82" style="edgeStyle=orthogonalEdgeStyle;rounded=0;orthogonalLoop=1;jettySize=auto;html=1;entryX=0.707;entryY=0.015;entryDx=0;entryDy=0;entryPerimeter=0;" edge="1" parent="WIyWlLk6GJQsqaUBKTNV-1" source="VoRoWikCG2MjpyRXgrAW-80" target="VoRoWikCG2MjpyRXgrAW-4">
          <mxGeometry relative="1" as="geometry" />
        </mxCell>
        <mxCell id="VoRoWikCG2MjpyRXgrAW-80" value="Control the speed" style="whiteSpace=wrap;html=1;aspect=fixed;" vertex="1" parent="WIyWlLk6GJQsqaUBKTNV-1">
          <mxGeometry x="220" y="20" width="80" height="80" as="geometry" />
        </mxCell>
      </root>
    </mxGraphModel>
  </diagram>
</mxfile>
